<?xml version="1.0" encoding="utf-8"?>
<!-- Generator: Adobe Illustrator 26.0.3, SVG Export Plug-In . SVG Version: 6.00 Build 0)  -->
<svg version="1.1" xmlns="http://www.w3.org/2000/svg" xmlns:xlink="http://www.w3.org/1999/xlink" x="0px" y="0px"
	 viewBox="0 0 2000 2000" style="enable-background:new 0 0 2000 2000;" xml:space="preserve">
<style type="text/css">
	.st0{display:none;}
	.st1{display:inline;}
	.st2{fill:#8AB968;}
	.st3{fill:#FFFFFF;}
</style>
<g id="Слой_1" class="st0">
	<path class="st1" d="M1523.59,1579.58c-127.52,76.28-271.53,114.42-432.01,114.42c-184.68,0-333.49-61.39-446.44-184.2
		c-112.95-122.79-169.43-286.77-169.43-491.92c0-207.46,62.38-377.93,187.15-511.42c124.76-133.49,284.71-200.24,479.83-200.24
		c137.95,0,254.76,23.12,350.39,69.35V562.8c-102.23-67.61-223.98-101.42-365.23-101.42c-139.06,0-253.66,49.99-343.8,149.96
		c-90.15,99.98-135.21,231.74-135.21,395.27c0,168.17,41.49,299.05,124.49,392.67c82.99,93.62,195.11,140.43,336.38,140.43
		c97.29,0,180-19.63,248.16-58.94v-363.19h-277.02V964.14h442.73V1579.58z"/>
</g>
<g id="Слой_2">
	<g>
		<path class="st2" d="M1053.07,526.62c0.94,7.35,5.99,13.42,13.4,13.48l475.44,3.89c53.23-1.55,71.33-40.55,41.24-82.96
			c-35.68-50.29-204.19-147.48-219.83-156.43c-0.7-0.4-1-1.2-0.79-1.98c3.86-14.25,1.22-30.5-21-46.18
			c-18.17-12.82-56.32-4.48-61.92-3.16c-0.46,0.11-0.92,0.01-1.31-0.26c-88.81-61.28-243.88-42.91-306.09-32.27
			c-12.82,2.19-19.41,16.55-12.76,27.73C987.2,295.14,1038.09,409.19,1053.07,526.62z"/>
		<circle class="st3" cx="1299.78" cy="297.69" r="27.33"/>
	</g>
</g>
<g id="Слой_3">
	<g>
		<path class="st2" d="M972.12,522.97c3,5.63,8.67,16.94,11.44,22.18c0,0,1.98,4.38,1.98,4.38c1.93,4.54,5.23,10.76,6.41,14.92
			c0.98,3.08,0.94,4.51,0.23,4.87c0,0-1.75,1.68-1.75,1.68c-6.93,6.75-13.72,13.66-20.42,20.63
			c-43.16,44.87-83.13,92.9-121.63,141.11c-58.23,72.19-108.83,151.57-137.97,239.66c-14.37,42.84-23.9,86.68-27.23,131.63
			c-0.02,0.1-0.02,0.54-0.05,0.22c-0.03-0.13-0.06-0.39-0.08-0.42c-0.08-0.13-0.15,0.09-0.2,0.39c-0.39,2.39-0.29,4.81-0.43,7.78
			c0.88,108.19,35.6,223.32,115.31,299.42c0.9,0.86,2.1,2.05,3.01,2.89c8.95,7.99,18.61,16.32,27.69,24.09
			c39.88,33.84,82.43,64.73,129,88.62c13.21,6.9,27.79,13.88,41.38,19.99c0,0,2.38,1.08,2.38,1.08s1.19,0.54,1.19,0.54
			s0.6,0.27,0.6,0.27c0.27,0.18,0.41,0.34,0.71,0.54c3.19,1.82,6.67,3.15,10.14,4.46c22.58,8.16,46.85,13.48,70.9,17.47
			c25.25,4.07,50.97,6.29,76.5,6.49c99.24,1.47,198.36-32.07,260.51-111.03c56.03-73.64,72.47-174.26,58.65-265.18
			c-10.65-65.7-40.24-135.19-101.08-167.74c-66.83-33.95-145.84-16.5-213.52,8.48c0,0-0.46-0.89-0.46-0.89
			c25.71-17.53,53.57-32.5,83.64-43.55c108.98-40.41,204.74-6.23,269.69,89.39c86.03,130.3,95.84,314.88,23.8,454.03
			c-92.25,172.23-283.47,246.7-471.17,247.64c-41.61,0.17-82.85-2.56-123.95-10.98c-5.58-1.21-11.69-2.63-17.2-4.16
			c-35.31-10.02-71.02-21.21-105.09-34.97c-41.84-16.61-82.39-36.93-121.21-59.54c-26.11-15.27-52.2-31.52-77.15-48.48
			c-37.08-25.66-71.39-55.64-102.12-88.49c-103.27-111.13-171.73-257.9-195.32-407.37c-16.69-124.51-0.86-253.24,42.74-370.61
			c77.92-208.89,223.59-378.45,428.13-469.56c5.2-2.49,10.52-4.69,15.76-7.05c0.93-0.66,2.53-0.25,5.14,1.81
			c1.86,1.41,2.89,2.39,4.88,4.65c2.74,3.16,7.16,7.95,9.65,10.82c1.46,1.84,3.33,4.35,4.97,6.49c0,0,10.15,13.39,10.15,13.39
			S972.12,522.97,972.12,522.97L972.12,522.97z"/>
	</g>
</g>
<g id="Слой_4">
	<path class="st2" d="M950,612c28.36-32.07,50.28-45.73,63.84-53.72c8.88-5.23,14.31-14.73,14.44-25.04
		c0.44-34.85-15.7-99.47-27.78-137.74c-10.53-33.34-25-79-57-127c-6.7-10.04-17.62-18.02-29-14l-89.06,29.36
		c-19.15,6.77-37.63,15.27-55.2,25.45c-22.54,13.06-58.52,39.39-53.74,37.19l204.32,266.83C928.22,623,941.93,621.12,950,612z"/>
</g>
</svg>
